<svg width="210" height="210" viewBox="0 0 210 210" fill="none" xmlns="http://www.w3.org/2000/svg">
<path d="M192.484 154.061C185.607 174.011 165.018 209.335 143.808 209.72C129.738 209.991 125.214 201.381 109.132 201.381C93.0581 201.381 88.0269 209.457 74.7269 209.982C52.2219 210.849 17.4844 158.996 17.4844 113.776C17.4844 72.24 46.4294 51.6513 71.7169 51.275C85.2794 51.03 98.0894 60.4188 106.358 60.4188C114.662 60.4188 130.219 49.1312 146.573 50.785C153.416 51.0737 172.639 53.5412 184.977 71.5837C152.243 92.9512 157.344 137.638 192.484 154.061ZM146.792 0C122.064 0.9975 101.887 26.9413 104.704 48.3963C127.559 50.1725 149.487 24.5525 146.792 0Z" fill="#FF9811"/>
</svg>
