<svg width="2686" height="3932" viewBox="0 0 2686 3932" fill="none" xmlns="http://www.w3.org/2000/svg">
<path d="M1219.82 3918.88C1215.37 3910.49 1202.74 3897.06 1184.29 3881.1C1168.55 3867.48 1151.6 3850.3 1146.62 3842.92C1118.6 3801.36 1115.15 3741.41 1139.12 3712.91C1151.36 3698.37 1163.92 3702.44 1176.96 3725.19C1183.79 3737.09 1185.47 3743.37 1185.5 3757.07C1185.54 3769.02 1187.23 3776.89 1191.17 3783.37C1197.66 3794 1202.43 3794.93 1209.63 3786.98C1213.82 3782.35 1214.47 3777.95 1213.3 3762.1C1211.82 3742.03 1206.84 3728 1196.82 3715.68C1192.19 3709.98 1190.55 3702.85 1189.25 3682.78C1187.6 3657.44 1187.68 3657.03 1196.5 3644.86C1203.98 3634.53 1205.42 3629.97 1205.42 3616.55C1205.42 3597.62 1209.2 3591.24 1226.32 3581.2C1240.09 3573.13 1265.68 3546.55 1272.65 3533.09C1280.25 3518.4 1287.63 3494.4 1292.41 3468.83C1297.24 3443.03 1301.56 3432.27 1312.22 3419.5C1315.79 3415.22 1320.84 3404.34 1323.44 3395.33C1329.36 3374.79 1336.03 3367.39 1357.53 3357.52C1366.91 3353.21 1376.72 3347.31 1379.33 3344.42C1383.43 3339.85 1404.43 3295.38 1404.43 3291.24C1404.43 3290.42 1399.35 3283.88 1393.15 3276.72C1382.45 3264.35 1380.18 3259.1 1373.04 3230.25C1368.72 3212.8 1353.21 3197.1 1327.89 3184.54C1308.67 3175.01 1303.93 3170.9 1284.01 3146.43L1261.66 3119L1274.77 3101.57C1286.54 3085.9 1287.87 3082.6 1287.87 3068.9C1287.87 3060.48 1284.7 3043.73 1280.8 3031.51C1266.91 2988.03 1273.16 2927.71 1292.9 2914.78C1303.37 2907.92 1327.33 2909.15 1353.41 2917.89C1375.25 2925.2 1430.29 2936.87 1442.95 2936.87C1459.18 2936.87 1447.77 2929.22 1421.5 2922.49C1403.12 2917.78 1388.43 2909.63 1373.46 2895.84C1366.26 2889.19 1352.4 2878.41 1342.66 2871.88C1322.88 2858.59 1320.41 2855.08 1313.82 2830.74C1308.7 2811.87 1303.6 2807.29 1301.27 2819.48C1299.53 2828.58 1304.4 2841.78 1314.4 2855.14C1327.8 2873.02 1326.59 2885.7 1311.5 2885.7C1291.81 2885.7 1283.62 2870.74 1285.9 2838.91C1288.15 2807.44 1295.67 2785.55 1312.94 2760.2C1328.94 2736.73 1342.95 2707.77 1340.34 2703.56C1339.44 2702.1 1336.17 2700.91 1333.07 2700.91C1328.87 2700.91 1325.3 2705.65 1319.11 2719.46C1308.7 2742.65 1294.56 2763.45 1289.21 2763.45C1286.96 2763.45 1284.38 2759.93 1283.47 2755.63C1281.11 2744.56 1270.27 2720.81 1267.58 2720.81C1261.22 2720.81 1260.72 2733.03 1265.7 2766.29C1270.15 2795.97 1270.47 2804.27 1267.65 2816.65C1264.84 2828.95 1265.02 2834.12 1268.72 2847.11C1274.04 2865.81 1272.61 2873.2 1262.67 2878.41C1255.57 2882.13 1255.28 2883.2 1256.17 2902.41C1257.4 2929.02 1251.08 2947.84 1235.43 2964.17C1221.5 2978.71 1211 2980.66 1204.02 2970C1201.62 2966.33 1195.31 2950.66 1190.01 2935.18C1176.85 2896.77 1166.84 2873.31 1163.08 2872.06C1158.03 2870.37 1159.37 2888.87 1165.62 2907.02C1172.47 2926.94 1173.14 2942.56 1167.14 2942.56C1161.37 2942.56 1143.46 2926.36 1138.39 2916.55C1132.76 2905.67 1129.69 2906.34 1127.32 2918.97C1126.23 2924.76 1121.64 2934.67 1117.1 2941C1106.16 2956.28 1104.41 2966.76 1110.19 2982.39C1118.63 3005.2 1118.75 3007.95 1111.36 3007.95C1101.92 3007.95 1074.81 2978.92 1065.18 2958.51C1053.94 2934.67 1053.3 2928.39 1060.12 2908.68C1063.42 2899.15 1066.11 2885.83 1066.11 2879.06C1066.11 2863.89 1074.56 2846.64 1093.26 2823.63C1101 2814.1 1112.46 2796.98 1118.73 2785.58C1129.91 2765.26 1130.59 2764.63 1155.41 2752.08C1182.03 2738.61 1187.86 2732.82 1190.28 2717.48C1193.07 2699.79 1199.11 2692.86 1224.88 2677.8C1256.09 2659.56 1272.61 2638.36 1255.61 2638.36C1251.7 2638.36 1242.43 2644.06 1233.18 2652.16C1221.83 2662.09 1214.08 2666.5 1205.54 2667.86C1194.38 2669.65 1193.25 2670.73 1186.51 2686.04C1175.68 2710.64 1168.96 2717.84 1129.18 2747.54C1100.81 2768.71 1091.14 2777.65 1086.17 2787.32C1082.64 2794.17 1074.58 2806 1068.27 2813.6C1061.95 2821.2 1054.68 2831.9 1052.13 2837.37C1041.04 2861.1 1034.6 2865.16 1024.95 2854.49C1012.94 2841.22 1012.17 2856.11 1021.96 2912.35C1028.31 2948.85 1030.12 2954.32 1046.19 2985.6C1065.1 3022.42 1069.7 3041.32 1062.9 3054.13C1060.76 3058.16 1051.41 3067.34 1042.13 3074.53C1018.56 3092.78 1013.35 3101.21 997.967 3145.97C991.859 3163.74 989.648 3176.76 988.073 3204.25C986.404 3233.39 984.268 3245.18 975.987 3270.92C970.455 3288.12 963.523 3306.94 960.584 3312.74C957.644 3318.54 955.238 3326.44 955.238 3330.29C955.238 3334.14 952.04 3341.1 948.131 3345.74C944.222 3350.39 941.023 3355.1 941.023 3356.21C941.023 3357.33 946.141 3364.67 952.395 3372.52C962.05 3384.65 963.767 3388.84 963.767 3400.26C963.767 3413.44 958.548 3423.75 946.776 3433.84C938.446 3440.97 919.617 3448.48 909.751 3448.61C904.278 3448.67 894.224 3451.26 887.407 3454.36C864.303 3464.84 840.996 3459.49 837.688 3442.95C836.036 3434.69 837.029 3414.54 840.478 3386.29C841.769 3375.71 844.449 3371.38 857.402 3358.94L872.792 3344.15V3310.93C872.792 3292.65 874.267 3271.85 876.068 3264.69C878.587 3254.69 878.544 3249.46 875.878 3242.1C872.828 3233.66 873.262 3230.38 879.508 3214.76C883.41 3204.99 890.018 3184.69 894.19 3169.63C899.628 3150.01 907.224 3132.7 921.007 3108.51C939.056 3076.83 941.878 3073.43 966.962 3053.15C991.738 3033.11 1007.46 3013.74 1002.76 3009.03C1001.67 3007.94 989.573 3018.67 975.876 3032.88C945.117 3064.77 940.392 3066.43 921.415 3051.96C904.88 3039.35 901.221 3032.35 901.221 3013.36C901.221 2997.27 904.808 2989.21 924.398 2961.3C931.978 2950.5 938.179 2939.95 938.179 2937.85C938.179 2930.46 928.681 2934.16 915.174 2946.79C899.876 2961.1 893.783 2961.21 891.159 2947.23C888.71 2934.17 892.699 2926.31 914.761 2900.7C940.896 2870.35 947.294 2859.65 946.184 2848.1C945.252 2838.43 944.583 2838.19 928.94 2841.87C921.925 2843.53 921.122 2842.95 921.122 2836.23C921.122 2832.12 925.107 2821.69 929.977 2813.06C937.655 2799.46 940.457 2796.94 951.041 2794.1L963.248 2790.84L961.691 2775.75C960.341 2762.66 961.143 2759.13 967.747 2749.16C978.154 2733.43 980.519 2726.2 977.71 2718.67C973.945 2708.59 965.122 2710.83 956.137 2724.14C941.807 2745.38 934.775 2739.22 947.742 2716.79C951.437 2710.4 956.591 2698.65 959.195 2690.69C961.8 2682.72 967.095 2671.91 970.963 2666.67C974.831 2661.43 977.033 2656.26 975.856 2655.19C974.68 2654.13 964.526 2652.39 953.293 2651.34L932.869 2649.42L930.877 2669.64C928.539 2693.36 921.966 2704.66 914.233 2698.24C910.434 2695.09 909.691 2689.96 910.353 2671.43C911.225 2647 912.141 2645.6 930.962 2639.8C936.09 2638.21 935.805 2637.39 927.408 2629.55C913.125 2616.2 915.503 2595.72 931.337 2595.72C938.509 2595.72 941.023 2600.62 941.023 2614.6C941.023 2627.47 945.006 2624.75 949.463 2608.82C954.893 2589.43 965.823 2580.7 986.553 2579.2C1006.72 2577.75 1010.21 2574.67 996.739 2570.22C980.103 2564.73 979.554 2554.17 994.445 2526.06C1011.29 2494.28 1018.34 2492.41 1106.44 2496.39L1133.96 2497.63L1144.3 2487.68C1154.34 2478.02 1178.49 2438.12 1184.74 2420.87C1191.28 2402.81 1191.29 2402.39 1185.27 2402.39C1181.22 2402.39 1177.91 2406.02 1174.12 2414.59C1171.15 2421.3 1165.35 2430.58 1161.23 2435.21C1157.1 2439.83 1148.08 2452.28 1141.17 2462.88C1125 2487.66 1119.22 2490.44 1100.53 2482.4C1092.62 2478.99 1080.35 2476.3 1072.69 2476.29C1053 2476.28 1038.37 2471.57 1036.14 2464.55C1034.65 2459.85 1032.65 2458.98 1026.27 2460.25C1015.76 2462.36 1010.99 2456.85 1014.75 2446.95C1018.8 2436.31 1028.37 2431.24 1053.51 2426.43C1080.01 2421.36 1105.92 2410.26 1105.92 2403.97C1105.92 2397.66 1090.37 2398.34 1074.99 2405.32C1056.1 2413.89 1041.81 2415.52 1039.45 2409.36C1036.04 2400.49 1043.77 2384.3 1059.18 2367.99C1070.45 2356.07 1075.41 2348.02 1078.91 2336C1086.03 2311.49 1097.74 2304.34 1147.14 2294.31C1186.97 2286.23 1219.63 2277.14 1219.63 2274.15C1219.63 2269.31 1195.34 2271.73 1173.33 2278.76C1161.15 2282.65 1148.61 2285.83 1145.47 2285.83C1136.5 2285.83 1122.97 2277.66 1122.97 2272.24C1122.97 2269.54 1130.73 2256.46 1140.22 2243.18C1164.62 2208.99 1175.48 2189.36 1171.93 2185.82C1167.23 2181.11 1158.43 2185.67 1144.71 2199.94C1127.9 2217.43 1123.36 2223.56 1109.39 2247.65C1099.73 2264.31 1094.75 2269.6 1080.26 2278.54C1067.9 2286.17 1059.93 2293.79 1053.02 2304.59C1047.5 2313.22 1036.18 2325.06 1026.97 2331.84C1007.55 2346.13 969.763 2383.43 952.624 2405.24C927.991 2436.57 923.715 2440.49 914.126 2440.49C903.856 2440.49 870.143 2416.54 867.8 2407.58C866.295 2401.83 862.629 2400.69 837.255 2398.12C809.122 2395.28 791.684 2389.17 783.312 2379.22C774.611 2368.88 759.073 2339.18 759.073 2332.89C759.073 2321.43 791.493 2312.33 814.94 2317.19L830.128 2320.35L843.642 2306.49C863.127 2286.51 877.28 2282.96 904.853 2291.14C927.884 2297.96 942.931 2298.8 953.757 2293.87C967.35 2287.68 959.959 2284.41 932.231 2284.36C907.85 2284.31 903.853 2283.5 887.007 2275.12C876.843 2270.07 866.009 2265.93 862.931 2265.93C859.853 2265.93 850.815 2272.37 842.847 2280.24C824.757 2298.1 813.657 2300.74 794.84 2291.63C783.869 2286.32 779.173 2285.66 763.853 2287.3C748.857 2288.91 743.408 2288.21 731.697 2283.17C718.282 2277.4 717.06 2277.33 706.561 2281.72C684.905 2290.76 656.727 2280.08 656.727 2262.82C656.727 2253 675.051 2231.35 687.36 2226.63C691.621 2225 705.981 2223.16 719.272 2222.54C736.851 2221.73 746.699 2219.74 755.406 2215.25C771.676 2206.85 778.685 2207.42 801.708 2219.02L821.456 2228.96L827.801 2220.38C832.221 2214.4 837.423 2211.27 844.941 2210.07C850.877 2209.12 855.734 2207.31 855.734 2206.04C855.734 2204.78 849.018 2200.15 840.809 2195.75C823.428 2186.43 820.085 2177.95 830.98 2170.82C834.757 2168.34 850.743 2163.86 866.504 2160.86C897.764 2154.9 910.769 2149.56 915.484 2140.75C922.734 2127.2 911.288 2128.19 897.149 2142.33C893.277 2146.2 887.585 2149.37 884.5 2149.37C877.483 2149.37 867.106 2136.54 867.106 2127.87C867.106 2121.24 860.429 2112.41 855.418 2112.41C853.903 2112.41 847.649 2114.97 841.519 2118.1C835.389 2121.22 826.965 2123.78 822.798 2123.78C815.722 2123.78 815.359 2123.17 817.291 2114.54C818.429 2109.46 820.299 2100.82 821.446 2095.35C822.594 2089.88 826.947 2078.71 831.122 2070.54C835.296 2062.36 841.343 2048.64 844.56 2040.04C851.086 2022.6 861.153 2012.91 872.748 2012.91C881.821 2012.91 900.934 2025.11 910.004 2036.71C920.352 2049.93 930.403 2052.62 958.124 2049.59C988.387 2046.28 989.354 2045.89 989.354 2037.21C989.354 2028.5 986.573 2027.7 947.009 2024.93C915.614 2022.73 915.701 2022.77 910.792 2005.8C908.984 1999.55 904.869 1995.62 895.382 1991.08C878.098 1982.81 870.236 1969.08 875.504 1956.36C877.519 1951.5 880.073 1947.52 881.179 1947.52C882.284 1947.52 889.358 1943.43 896.898 1938.44C914.771 1926.6 922.783 1927.06 955.628 1941.85C984.581 1954.89 996.572 1955.74 1019.09 1946.33C1027.41 1942.85 1029.38 1940.62 1028.65 1935.49C1027.76 1929.19 1027.01 1929.06 997.883 1929.78L968.032 1930.52L960.454 1919.42C955.386 1911.99 949.266 1907.15 941.975 1904.8C920.492 1897.88 915.696 1889.58 925.5 1876.29C931.295 1868.44 932.495 1863.54 932.495 1847.71C932.495 1829.94 933.093 1828.12 941.112 1821.37C949.307 1814.47 965.539 1808.26 975.459 1808.23C977.98 1808.22 985.017 1812.17 991.095 1817C1007.65 1830.16 1032 1838.79 1032 1831.5C1032 1830.23 1024.96 1823.12 1016.36 1815.7C1007.76 1808.27 1000.73 1800.18 1000.73 1797.72C1000.73 1795.26 1003.41 1788.91 1006.69 1783.6C1019.3 1763.19 1003.12 1758.88 982.122 1777.05C967.471 1789.73 972.557 1789.18 919.19 1783.76C899.594 1781.77 896.059 1777.33 902.579 1762.87C911.966 1742.05 919.863 1737.22 949.482 1734.15C979.316 1731.07 999.502 1722.19 1011.02 1707.09C1018.87 1696.8 1019.33 1693.63 1013.66 1688.92C1006.78 1683.21 998.31 1688.4 987.16 1705.16C974.726 1723.85 964.624 1728.84 953.726 1721.7C947.996 1717.95 946.709 1714.77 946.709 1704.38C946.709 1684.79 938.548 1686.84 912.604 1712.96C886.739 1739 877.096 1742.31 863.854 1729.67C855.822 1722.01 855.406 1720.58 857.139 1706.57C858.701 1693.96 858.057 1690.46 852.985 1684.02C848.531 1678.35 847.462 1674.21 848.839 1667.94C850.449 1660.61 849.282 1658.31 840.013 1650.53L829.331 1641.56L835.817 1604.77C843.617 1560.53 844.876 1556.85 854.315 1550.66C864.865 1543.75 879.206 1548.78 899.458 1566.5C923.08 1587.17 923.293 1587.24 957.658 1584.95C997.93 1582.27 1005.95 1577.56 991.881 1564.87C986.689 1560.18 981.99 1559.54 957.054 1560.13C925.732 1560.86 915.437 1559.57 915.437 1554.92C915.437 1553.26 911.73 1548.2 907.2 1543.67C902.67 1539.14 896.941 1529.5 894.468 1522.24C891.996 1514.98 884.828 1503.47 878.539 1496.64C865.353 1482.34 863.726 1471.21 872.673 1456.54C878.051 1447.72 881.323 1446.2 907.537 1440.3C917.533 1438.05 921.992 1429.91 918.402 1420.47C915.411 1412.6 907.321 1407.74 885.209 1400.51C864.447 1393.73 860.106 1388.05 862.777 1371.16C865.428 1354.4 865.43 1352.28 862.809 1335.77C859.456 1314.62 862.329 1308.49 879.285 1300.59C911.194 1285.74 926.806 1294.2 926.806 1326.36C926.806 1351.75 929.403 1361.57 937.514 1366.89C944.367 1371.38 944.849 1371.24 952.756 1362.39C964.396 1349.36 963.913 1333.74 951.052 1307.22C940.734 1285.96 940.279 1277.32 948.951 1267.34C953.523 1262.08 968.152 1260.73 974.824 1264.95C976.998 1266.33 982.115 1274.3 986.196 1282.68C990.695 1291.91 997.507 1300.48 1003.5 1304.44C1012.78 1310.59 1013.59 1310.69 1017 1306.03C1018.99 1303.31 1020.62 1298.99 1020.62 1296.43C1020.62 1293.87 1023.76 1288.83 1027.6 1285.23C1033.52 1279.67 1036.75 1278.88 1048.89 1280.05C1060.81 1281.19 1066.64 1284.05 1083.85 1297.21C1104.86 1313.28 1114.37 1317.52 1116.41 1311.73C1118.08 1306.98 1093.04 1282.43 1071.95 1268.13C1054.85 1256.54 1054.04 1255.51 1059.87 1252.9C1064.49 1250.84 1071.17 1251.68 1085.31 1256.1C1095.86 1259.39 1109.95 1263.49 1116.63 1265.2C1123.92 1267.07 1134.42 1273.33 1142.95 1280.91C1150.76 1287.85 1161.29 1295.61 1166.36 1298.17C1171.42 1300.73 1178.44 1305.46 1181.95 1308.67C1185.46 1311.88 1189.19 1313.65 1190.23 1312.61C1194.87 1307.97 1184.25 1295.99 1166.11 1285.39C1144.41 1272.72 1142.87 1270.52 1142.87 1252.17C1142.87 1240.08 1142.22 1239.13 1125.5 1226.82C1115.95 1219.79 1107.04 1214.03 1105.7 1214.03C1099.74 1214.03 1083.55 1195.96 1079.12 1184.36C1075.86 1175.82 1071.01 1169.61 1064.41 1165.53C1052.65 1158.26 1032 1128.94 1032 1119.52C1032 1104.84 1046.67 1101.4 1057.8 1113.47C1066.38 1122.78 1080.01 1128.74 1092.7 1128.74C1104.08 1128.74 1105.81 1124.91 1105.87 1099.61C1105.91 1084.92 1106.93 1082.15 1115.98 1072.13C1121.51 1066 1125.03 1060.39 1123.8 1059.66C1122.56 1058.92 1116.42 1057.48 1110.16 1056.44C1100.01 1054.76 1098.2 1053.2 1093.61 1042.09C1090.77 1035.24 1080.87 1017.8 1071.6 1003.34C1053.64 975.326 1052.15 971.137 1059.24 968.419C1067.6 965.21 1071.42 966.663 1084.59 978.065C1091.82 984.319 1098.71 989.437 1099.91 989.437C1101.11 989.437 1108.15 985.428 1115.55 980.528C1127.2 972.811 1129.94 972.051 1136.07 974.842C1146.58 979.632 1152.1 978.829 1162.77 970.957C1176.07 961.15 1183.69 961.862 1193.21 973.8C1197.58 979.273 1203.65 983.751 1206.71 983.751C1211.38 983.751 1210.64 982.064 1202.01 973.09C1187.21 957.685 1163.25 919.551 1161.07 907.931C1158.7 895.294 1161.66 869.68 1166.94 857.029C1172.12 844.64 1179.62 844.336 1196.89 855.817C1212.62 866.275 1213.95 866.331 1213.95 856.528C1213.95 851 1211.03 846.383 1204 840.77C1198.52 836.404 1194.05 830.327 1194.05 827.266C1194.05 818.402 1204.21 810.33 1215.37 810.33C1220.84 810.33 1225.32 809.39 1225.32 808.241C1225.32 807.092 1216.36 797.797 1205.42 787.586C1178.86 762.805 1179.29 755.464 1208.16 741.244C1222.91 733.978 1224.03 731.048 1227.35 690.92L1229.58 663.916L1252.33 664.079C1278.61 664.266 1298.52 671.479 1306.54 683.718C1309.51 688.245 1312.37 700.564 1313.71 714.546C1314.93 727.354 1316.02 738.154 1316.11 738.544C1316.21 738.935 1318.12 739.255 1320.35 739.255C1323.19 739.255 1324.95 734.341 1326.2 722.908C1328.37 703.149 1331.9 693.768 1337.16 693.768C1345.46 693.768 1384.52 724.997 1384.52 731.633C1384.52 733.061 1380.17 740.165 1374.84 747.421C1364.12 762.024 1344.76 798.372 1344.74 803.933C1344.73 805.887 1345.74 807.487 1346.99 807.487C1350.39 807.487 1368.34 787.869 1378.19 773.371C1382.98 766.335 1392.75 755.128 1399.92 748.468C1412.03 737.218 1412.95 735.355 1412.95 722.236C1412.95 698.186 1426.91 694.981 1459.86 711.465C1488.11 725.592 1490.66 737.619 1472.66 771.607C1460.03 795.44 1458.35 804.644 1466.62 804.644C1470.45 804.644 1475.24 798.058 1483.68 781.189C1495.83 756.906 1502.42 748.034 1516.4 737.123C1527.47 728.483 1532.07 729.008 1549.34 740.889C1557.46 746.478 1565.84 750.388 1567.96 749.576C1570.07 748.765 1572.2 743.233 1572.69 737.282C1573.58 726.509 1573.64 726.458 1587.3 725.587C1599.93 724.781 1601.34 723.932 1605.11 714.926C1607.36 709.543 1609.87 705.14 1610.69 705.14C1611.52 705.14 1617.38 707.788 1623.72 711.024C1637.82 718.213 1641.63 716.98 1648.15 703.127C1654.14 690.406 1662.63 688.808 1667.91 699.405C1673.57 710.765 1679.18 713.491 1690.47 710.374C1697.99 708.296 1703.86 708.777 1714.64 712.356C1727.69 716.691 1729.28 716.705 1733.89 712.533C1737.28 709.466 1744.28 707.983 1755.35 707.983H1771.77L1792.08 688.431C1816.21 665.205 1823.92 660.948 1846.53 658.363C1862.45 656.543 1864.09 656.909 1870.48 663.717C1876.81 670.45 1879.27 671.029 1901.73 671.092C1915.14 671.129 1930.59 672.198 1936.06 673.468C1956.42 678.192 1959.32 668.43 1941.75 654.308C1929.39 644.379 1927.95 638.467 1934.71 625.395C1940.23 614.724 1945.61 614.817 1958.11 625.797C1966.85 633.471 1969.61 634.382 1979.81 632.972C2017.66 627.744 2029.72 627.621 2037 632.388C2045.5 637.961 2051.6 638.361 2083.18 635.412L2106.64 633.223V648.046C2106.64 663.254 2103.96 671.02 2095.29 680.974C2092.56 684.102 2089.57 691.685 2088.63 697.826C2087.46 705.519 2083.47 712.593 2075.8 720.57C2062.35 734.544 2058.31 741.965 2058.31 752.65C2058.31 763.778 2064.97 772.287 2075.31 774.355C2089.15 777.122 2091.27 786.968 2084.22 815.72C2071.12 869.157 2035.14 922.966 2004.84 934.441C1980.75 943.56 1949.05 961.344 1938.13 971.862C1932.23 977.542 1921.13 994.397 1913.47 1009.32C1896.64 1042.08 1888.02 1053.28 1866.1 1070.89C1856.89 1078.29 1839.76 1092.89 1828.03 1103.34C1814.69 1115.22 1798.53 1126.21 1784.86 1132.69C1761.96 1143.54 1744.11 1160.34 1740.81 1174.15C1736.97 1190.25 1731.64 1196.42 1717.56 1201.1C1707.31 1204.51 1700.5 1209.45 1691.75 1219.83C1680.83 1232.78 1678.84 1233.93 1667.42 1233.93C1660.57 1233.93 1651.74 1232.7 1647.79 1231.2C1643.83 1229.69 1639.94 1229.52 1639.14 1230.82C1637.31 1233.77 1644.73 1240.37 1656.69 1246.43C1682.59 1259.55 1679 1299.32 1651.91 1299.32C1645.76 1299.32 1639.56 1301.16 1637.55 1303.58C1632.67 1309.47 1617.73 1308.92 1600.77 1302.23C1587 1296.81 1585.77 1296.78 1563.85 1301.38C1541.83 1306.01 1541 1305.99 1534.95 1300.6C1531.53 1297.55 1526.98 1290.92 1524.84 1285.87C1521.04 1276.88 1508.12 1265.76 1505.04 1268.83C1502.39 1271.48 1528.73 1305.41 1539.27 1312.91C1549.49 1320.18 1555.44 1320.9 1577.69 1317.57C1587.9 1316.04 1592.63 1316.94 1602.4 1322.28C1612.89 1328 1615.39 1328.4 1621.29 1325.24C1627.28 1322.04 1629.38 1322.48 1638.9 1328.94C1652.59 1338.23 1659.18 1338.16 1678.86 1328.51L1694.71 1320.73L1704 1331.8C1711.43 1340.64 1715.13 1342.81 1722.46 1342.6C1735.86 1342.22 1748.55 1333.6 1756.98 1319.15C1761.58 1311.27 1766.77 1306.08 1770.63 1305.52C1776.04 1304.73 1776.85 1305.94 1776.85 1314.72C1776.85 1323 1772.63 1330.36 1753.49 1355.43C1740.64 1372.26 1720.71 1398.5 1709.2 1413.75C1691.17 1437.63 1687.13 1441.47 1680.02 1441.47C1673.32 1441.47 1671.47 1440.01 1670.13 1433.65C1667.3 1420.23 1664.49 1417.23 1655.71 1418.31C1643.68 1419.79 1634.84 1425.2 1620.61 1439.82L1607.94 1452.84H1584.99C1568.8 1452.84 1560.19 1454.15 1555.72 1457.28C1552.23 1459.72 1537.1 1475.32 1522.09 1491.94C1492.89 1524.28 1480.5 1544.27 1486.16 1549.93C1491.71 1555.48 1501.63 1546.25 1513.63 1524.38C1524.58 1504.39 1540.53 1488.92 1566.47 1473.13C1579.78 1465.04 1599.36 1465.15 1616.38 1473.42L1629.49 1479.79L1646.4 1470.42C1665.24 1459.98 1674.51 1460.25 1674.51 1471.23C1674.51 1475.15 1666.37 1488.14 1654.6 1503C1643.65 1516.83 1632.67 1532.42 1630.19 1537.65C1626.46 1545.51 1624.52 1546.86 1618.98 1545.47C1613.66 1544.13 1610.73 1545.81 1604.84 1553.53C1600.75 1558.89 1593.65 1564.59 1589.05 1566.19C1583.06 1568.28 1580.69 1570.97 1580.69 1575.65C1580.69 1583.83 1563.55 1617.73 1559.42 1617.73C1557.74 1617.73 1553.2 1615.49 1549.34 1612.76C1543.78 1608.82 1536.38 1607.78 1513.94 1607.78C1488.74 1607.78 1485.46 1608.36 1484.55 1612.97C1483.99 1615.83 1485.88 1620.05 1488.75 1622.36C1493.04 1625.8 1501.11 1626.25 1533.78 1624.86C1585.65 1622.66 1591.62 1620.89 1610.36 1602.15C1618.79 1593.72 1630.6 1584.31 1636.59 1581.23C1642.59 1578.16 1650.68 1572.24 1654.56 1568.08C1661.52 1560.63 1661.55 1560.4 1656.57 1551.72C1653.06 1545.61 1652.42 1542.02 1654.48 1539.96C1656.12 1538.33 1676.28 1536.29 1699.38 1535.43L1741.32 1533.87L1760.29 1523.19C1770.73 1517.31 1789.45 1502.92 1801.91 1491.2C1819.72 1474.45 1826.38 1469.9 1833.1 1469.9C1842.11 1469.9 1845.09 1473.84 1845.09 1485.77C1845.09 1497.45 1853.15 1494.08 1854.15 1481.98L1855.04 1471.32L1872.51 1469.9C1893.34 1468.2 1901.27 1462.32 1903.76 1446.73C1904.72 1440.77 1906.94 1434.72 1908.7 1433.29C1915.51 1427.76 1949.99 1419.26 1973.61 1417.29L1998.38 1415.23L2023.94 1431.36C2052.87 1449.62 2071.68 1457.02 2100.45 1461.49C2123.8 1465.11 2130.25 1462.72 2162 1438.68C2180.27 1424.86 2192.31 1420.98 2196.41 1427.61C2197.7 1429.7 2203.91 1430.24 2214.27 1429.17C2228.16 1427.74 2231.28 1428.4 2239.27 1434.5C2249.8 1442.53 2254.4 1442.94 2270.11 1437.29C2285.51 1431.74 2286.9 1431.88 2296.6 1440.05C2302.51 1445.02 2308.44 1447.15 2316.33 1447.15C2323.32 1447.15 2330.38 1449.32 2334.85 1452.84C2344.13 1460.14 2345.91 1460.01 2353.98 1451.42C2361.6 1443.31 2367.55 1442.5 2375.47 1448.49C2378.88 1451.07 2387.6 1452.69 2398.31 1452.75C2413.86 1452.83 2417.36 1451.68 2432.49 1441.52L2449.34 1430.21L2464.92 1434.65C2473.48 1437.1 2484.67 1440.36 2489.78 1441.91C2498.06 1444.41 2500.28 1443.75 2510.31 1435.81C2523.71 1425.19 2535.05 1421.57 2554.87 1421.57C2573.72 1421.57 2577.84 1423.28 2583.01 1433.28C2587.82 1442.57 2591.58 1443.45 2598.74 1436.96C2603.37 1432.78 2604.52 1433.34 2614.6 1444.66C2620.59 1451.37 2633.48 1465.66 2643.25 1476.4C2653.03 1487.15 2661.65 1498.72 2662.41 1502.11C2663.18 1505.5 2665.69 1517.65 2667.99 1529.11C2670.29 1540.57 2675.51 1557.2 2679.57 1566.07C2691.18 1591.37 2688.35 1605.24 2660.44 1659.95C2647.96 1684.42 2635.87 1705.51 2633.57 1706.81C2613.75 1718.08 2601.26 1737.74 2581.17 1789.3C2563.58 1834.43 2559.91 1867.96 2570.34 1888.39C2573.63 1894.84 2576.43 1904.17 2576.57 1909.12C2576.88 1919.97 2566.1 1941.29 2547.11 1967.4C2539.39 1978.02 2528.98 1995.46 2523.97 2006.16C2516.19 2022.78 2514.57 2030.15 2512.83 2056.92C2510.45 2093.29 2503.76 2115.95 2486.79 2145.1C2468.41 2176.68 2457.42 2189.79 2432.95 2209.3C2406.97 2230.02 2402.31 2238.18 2402.31 2262.9C2402.31 2277.79 2401.23 2281.18 2393.78 2289.66C2386.05 2298.47 2385.25 2301.23 2385.25 2319.19C2385.25 2342.99 2380.73 2350.38 2344.21 2386.34C2331.27 2399.08 2319.8 2412.29 2318.72 2415.7C2317.64 2419.12 2311.24 2425.14 2304.48 2429.1C2293.08 2435.78 2289.1 2441.58 2284.37 2458.4C2281.97 2466.94 2274.42 2468.7 2262.13 2463.56C2247.19 2457.32 2240.24 2458.1 2211.83 2469.2C2187.52 2478.7 2184.72 2479.16 2150.06 2479.23L2113.75 2479.31L2095.92 2500.42C2067.46 2534.09 2042.2 2551.96 2018.55 2555.13C2000.31 2557.58 2005.75 2564.45 2025.94 2564.45C2047.69 2564.45 2111.95 2535.13 2157.01 2504.65C2191.61 2481.24 2192.99 2480.77 2215.15 2484.73C2234.31 2488.16 2248.79 2496.09 2248.79 2503.17C2248.79 2505.21 2245.59 2514.11 2241.68 2522.95C2229.17 2551.23 2227.81 2549.49 2285.04 2578.48C2344.23 2608.48 2352.75 2614.48 2350.25 2624.44C2346.21 2640.53 2305.07 2676.85 2271.85 2693.65C2247.89 2705.77 2231.28 2706.26 2206.9 2695.55C2181.54 2684.42 2178.31 2685.43 2150.81 2713.07C2139.58 2724.36 2123.75 2739.12 2115.65 2745.86C2097.82 2760.69 2093.72 2768.27 2091.53 2790.4C2089.27 2813.35 2085.96 2815.54 2056.89 2813.34C2031.93 2811.45 2029.52 2812.4 1991.5 2839.11C1978.62 2848.16 1975.81 2849 1961.65 2848.01C1950.97 2847.26 1935.05 2842.24 1911.46 2832.19C1880.17 2818.86 1874.9 2817.47 1855.69 2817.47C1832.05 2817.47 1829.56 2816.22 1803.68 2791.33C1793.63 2781.66 1786.12 2776.97 1778.8 2775.78C1771.76 2774.64 1768.32 2775.17 1768.32 2777.38C1768.32 2779.2 1781.28 2795.32 1797.11 2813.2C1823.68 2843.2 1827.1 2846.05 1841.46 2850.23C1850.03 2852.72 1873.47 2855.84 1893.56 2857.18C1913.65 2858.51 1931.19 2860.28 1932.54 2861.11C1935.04 2862.66 1967.26 2868.38 2015.66 2875.88C2047.15 2880.75 2086.29 2889.44 2111.91 2897.25C2139.49 2905.66 2161.68 2904.63 2183 2893.98C2204.09 2883.44 2219.01 2867.03 2238.98 2832.41C2256.61 2801.85 2261.5 2799.43 2297.99 2803.2C2336.54 2807.18 2357.65 2821.12 2364.07 2846.84C2366.32 2855.86 2372.13 2858.99 2391.26 2861.48C2405.39 2863.32 2433.8 2876 2464.28 2894.06C2483.19 2905.27 2510.03 2914.13 2525.05 2914.13C2539.87 2914.13 2565.31 2925.83 2576.95 2937.99C2583.09 2944.41 2591.32 2951.63 2595.22 2954.03C2600.08 2957.01 2604.47 2964.64 2609.12 2978.19C2620.07 3010.15 2620.14 3008.74 2606.87 3025.45C2600.23 3033.8 2586.14 3058.55 2575.55 3080.44C2564.96 3102.34 2552.59 3123.78 2548.06 3128.09C2543.53 3132.4 2533 3138.16 2524.65 3140.88C2516.29 3143.61 2508.14 3147.96 2506.53 3150.55C2502.81 3156.52 2518.19 3199.2 2541.87 3248.62C2550.98 3267.63 2559.19 3286.23 2560.13 3289.96C2563.17 3302.09 2556.97 3311.13 2536.54 3324.35C2519.44 3335.41 2515.24 3339.96 2503.79 3359.81C2489.6 3384.41 2483.11 3388.91 2461.81 3388.91C2448.31 3388.91 2442.7 3395.19 2399.09 3459.23C2343.15 3541.38 2325.73 3561.08 2292.4 3579.89C2284.01 3584.62 2269.17 3597.23 2259.41 3607.9C2243.72 3625.08 2216.94 3645.35 2185.25 3664.04C2173.78 3670.81 2163.52 3685.48 2163.51 3695.14C2163.49 3706.36 2154.45 3721.13 2145.26 3724.97C2137.62 3728.16 2041.16 3730.6 1920.42 3730.65H1906.21L1907.15 3764.04C1908.04 3795.85 1907.76 3797.82 1901.28 3805.36C1894.5 3813.24 1894.39 3813.26 1875.94 3810.04C1847.27 3805.05 1849.66 3804.12 1829.9 3828.09L1822.92 3836.57L1812.58 3831.65C1806.9 3828.94 1799.18 3826.72 1795.43 3826.72C1791.11 3826.72 1787.95 3824.64 1786.8 3821.04C1782.49 3807.43 1772.52 3821.74 1775.2 3837.71C1776.15 3843.4 1777.23 3850.24 1777.6 3852.92C1778.44 3858.95 1722.88 3904.93 1709.37 3909.39C1701.76 3911.91 1698.12 3911.52 1689.43 3907.26C1678.28 3901.81 1676.57 3898.39 1672.55 3873.63C1669.07 3852.2 1662.64 3854.56 1658.68 3878.73C1656.93 3889.35 1654.31 3899.23 1652.84 3900.7C1648.63 3904.91 1631.7 3898.95 1619.67 3889.03C1607.51 3879 1592.13 3854.16 1592.09 3844.49C1592.06 3836.94 1589.1 3836.54 1577.53 3842.52C1564.99 3849.01 1553.93 3844.25 1526.61 3820.64C1512.86 3808.76 1501.87 3801.32 1499.46 3802.25C1494.26 3804.24 1493.91 3839.26 1499 3849.29C1500.93 3853.09 1508.26 3859.57 1515.3 3863.69C1529.75 3872.13 1531.65 3877.03 1526.52 3892.57C1523.42 3901.99 1523.56 3904.16 1527.57 3908.59C1531.89 3913.36 1531.77 3914.36 1525.89 3922.77L1519.57 3931.82L1476.28 3931.86L1433 3931.91L1428.77 3923.72C1423.01 3912.59 1410.59 3902.62 1390.98 3893.39C1381.96 3889.14 1368.57 3880.66 1361.23 3874.54C1353.89 3868.42 1340.17 3860.81 1330.75 3857.63C1316.02 3852.66 1312.71 3850.18 1307.1 3840C1299.34 3825.91 1292.67 3824.15 1277.09 3832.1C1260.8 3840.41 1248.94 3851.22 1240.73 3865.23L1233.52 3877.54L1242.21 3899.26C1254.18 3929.14 1253.89 3931.91 1238.82 3931.91C1227.36 3931.91 1226.37 3931.23 1219.82 3918.88ZM1253.75 991.173C1253.75 977.585 1247.98 968.4 1237.55 965.373C1232.59 963.933 1230.41 965.293 1226.95 971.977C1224.56 976.606 1220.97 980.941 1218.98 981.611C1217 982.28 1221.13 985.386 1228.16 988.513C1235.2 991.64 1242.71 996.325 1244.86 998.925C1251.22 1006.63 1253.75 1004.42 1253.75 991.173ZM931.446 3480.29C924.021 3472.09 928.312 3464.93 939.252 3467.27C950.816 3469.75 951.048 3470.07 947.233 3478.45C943.381 3486.9 937.997 3487.53 931.446 3480.29ZM1106.28 3342.68C1089.01 3333.2 1061.12 3309.67 1054.54 3299.03C1050.54 3292.55 1049.04 3284.86 1048.99 3270.59C1048.89 3244.92 1044.89 3228.47 1035.84 3216.61C1028.49 3206.97 1028.49 3206.9 1032.14 3183.5C1036.67 3154.49 1040.01 3147.54 1055.64 3134.74C1073.72 3119.92 1092.21 3112.44 1104.88 3114.82C1118.68 3117.41 1135.43 3134.5 1145.94 3156.72C1152.91 3171.44 1154.24 3177.84 1154.24 3196.46C1154.25 3217.17 1154.86 3219.42 1163.32 3229.95C1171.9 3240.63 1172.2 3241.76 1168.79 3251.19C1165.5 3260.28 1165.82 3262.24 1172.49 3273.61C1177.81 3282.7 1179.33 3288.38 1178.09 3294.59C1177.15 3299.27 1177.89 3307.68 1179.73 3313.27C1181.58 3318.85 1182.34 3325.78 1181.43 3328.65C1178.53 3337.8 1158.02 3346.96 1137.5 3348.29C1121.61 3349.31 1116.79 3348.45 1106.28 3342.68ZM1185.71 3279.68C1180.72 3273.67 1183.12 3265.23 1189.82 3265.23C1194.17 3265.23 1195.47 3267.15 1195.47 3273.53C1195.47 3282.99 1190.87 3285.89 1185.71 3279.68ZM606.138 3215.35C602.55 3213.91 597.735 3208.23 595.439 3202.73C591.747 3193.9 591.763 3191.54 595.583 3182.41C597.958 3176.72 604.339 3167.16 609.764 3161.16C620.403 3149.38 624.159 3139.54 621.37 3130.75C620.403 3127.7 613.234 3117.92 605.439 3109.01L591.267 3092.82L596.039 3084.74C598.664 3080.3 603.762 3075.32 607.37 3073.67C621.129 3067.4 618.271 3047.75 603.601 3047.75C591.473 3047.75 586.129 3052.9 564.415 3085.52C534.85 3129.94 527.59 3138.11 521.124 3134.22C518.308 3132.52 513.547 3126.66 510.544 3121.18L505.083 3111.22L514.546 3091.57C523.135 3073.73 524.181 3068.69 525.877 3037.05C527.927 2998.79 531.247 2990.47 547.552 2982.69C552.091 2980.52 560.536 2976.36 566.319 2973.45C581.972 2965.55 584.161 2966.5 588.394 2983.02C591.719 2995.99 592.606 2997.2 595.328 2992.45C601.097 2982.38 619.703 2963.28 631.797 2955.02C638.393 2950.51 651.887 2940.75 661.783 2933.32C671.679 2925.89 681.569 2919.81 683.76 2919.81C688.683 2919.81 690.136 2928.81 692.028 2970.99C693.556 3005.06 698.76 3029.82 708.338 3048.6C715.439 3062.52 728.874 3125.55 726.638 3134.46C724.32 3143.69 711.825 3157.92 701.169 3163.45C696.273 3165.99 681.43 3170.74 668.184 3174.01L644.101 3179.95L634.573 3196.96C622.204 3219.06 619.587 3220.74 606.138 3215.35ZM851.673 3154.16C849.216 3151.7 847.231 3148.18 847.262 3146.34C847.359 3140.67 865.509 3107.46 868.528 3107.43C870.096 3107.4 871.741 3116.84 872.196 3128.43C872.837 3144.78 872.001 3150.48 868.439 3154.04C862.659 3159.82 857.376 3159.86 851.673 3154.16ZM1189.98 3080.96C1183.62 3074.21 1172.39 3064.59 1165.03 3059.59C1150.16 3049.47 1145.76 3039.44 1145.73 3015.57C1145.72 3005.07 1143.76 2999.02 1137.35 2989.7C1126.58 2974.05 1124.67 2965.89 1128.48 2951.76C1133.9 2931.61 1142.52 2933.09 1164.64 2957.94C1181.67 2977.07 1194.38 2997.85 1207.24 3027.59C1221.75 3061.16 1223.15 3077.95 1212.32 3088.77C1205.65 3095.45 1202.65 3094.4 1189.98 3080.96ZM1244.27 3085.65C1240.35 3081.73 1242.62 3070.39 1249.28 3060.57C1253.08 3054.98 1256.71 3048.85 1257.35 3046.94C1258.23 3044.32 1259.65 3044.42 1263.24 3047.38C1266.54 3050.11 1267.97 3055.75 1267.97 3066.12C1267.97 3079.25 1267.14 3081.33 1260.72 3084.25C1252.55 3087.97 1247.06 3088.44 1244.27 3085.65ZM729.654 3029.98C709.602 3014.83 702.209 3000.79 702.23 2977.91C702.262 2938.73 713.596 2924.52 760.181 2905.24C776.701 2898.4 790.246 2891.85 790.282 2890.67C790.314 2889.5 784.505 2888.54 777.366 2888.54C760.923 2888.54 753.388 2884.55 753.388 2875.83C753.388 2856.42 767.874 2838.3 812.429 2802.01C830.774 2787.07 853.21 2768.43 862.287 2760.6C876.079 2748.7 879.693 2746.84 884.286 2749.3C896.103 2755.63 894.295 2764.03 871.319 2809.54C859.254 2833.45 848.396 2854.28 847.192 2855.85C845.988 2857.41 838.98 2872.12 831.62 2888.54C805.264 2947.33 799.054 2959.73 790.692 2970.26C785.771 2976.45 780.237 2988.7 777.511 2999.42C771.849 3021.68 764.569 3034.25 754.745 3038.73C750.724 3040.56 747.032 3042.06 746.541 3042.06C746.049 3042.06 738.451 3036.62 729.654 3029.98ZM891.805 2906.61C888.518 2903.32 889.626 2886.05 893.759 2876.16C898.535 2864.73 914.673 2845.9 919.692 2845.9C930.069 2845.9 925.784 2866.08 913.215 2876.41C908.673 2880.14 904.28 2887.68 902.558 2894.68C899.714 2906.26 895.801 2910.6 891.805 2906.61ZM631.872 2854.94C627.739 2852.31 623.487 2825.99 627.2 2826.01C628.584 2826.01 633.876 2828.55 638.958 2831.65C649.687 2838.19 651.566 2849.58 642.699 2854.33C636.192 2857.81 636.374 2857.8 631.872 2854.94ZM643.118 2825.22C639.657 2821.54 636.826 2816.94 636.826 2815.01C636.826 2809.29 645.242 2794.33 657.52 2778.23C667.562 2765.06 670.125 2763.27 677.796 2764.02C689.948 2765.2 690.44 2773.44 679.281 2788.85C674.353 2795.65 668.107 2807.75 665.4 2815.74C659.682 2832.61 652.811 2835.54 643.118 2825.22ZM884.164 2730.08C873.896 2726.24 872.709 2712.36 881.866 2703.2C886.079 2698.99 887.898 2694.03 887.485 2687.9C887.09 2682.04 888.378 2678.24 891.114 2677.19C893.446 2676.3 895.847 2676.47 896.45 2677.57C899.643 2683.42 904.591 2724.24 902.359 2726.31C898.503 2729.9 888.971 2731.87 884.164 2730.08ZM856.196 2663.08C853.658 2660.02 854.483 2658.37 860.03 2655.4C868.223 2651.02 872.49 2653.6 868.224 2660.36C864.18 2666.77 860.037 2667.71 856.196 2663.08ZM605.345 2640.43C585.207 2626.86 571.767 2583.25 585.465 2575.91C588.49 2574.3 596.802 2572.97 603.937 2572.97C614.774 2572.97 618.725 2574.61 627.947 2582.94L638.986 2592.92L643.379 2586.21C646.953 2580.76 651.925 2578.86 670.018 2576.07C700.539 2571.35 725.709 2562.77 733.578 2554.39C741.686 2545.76 739.174 2545.62 710.743 2553.07C659.331 2566.54 649.509 2555.19 678.256 2515.53C690.533 2498.59 696.454 2492.91 704.554 2490.29C740.32 2478.71 767.086 2453.57 743.64 2453.57C740.027 2453.57 728.908 2456.18 718.932 2459.38L700.793 2465.19L695.107 2458.13C691.98 2454.24 685.365 2445.42 680.407 2438.52C670.168 2424.27 654.056 2415.53 632.562 2412.56C612.224 2409.75 608.769 2408.4 605.287 2401.9C602.666 2397 603.637 2394.6 611.539 2386.45C618.807 2378.95 620.134 2376.03 617.488 2373.39C608.563 2364.46 616.566 2352.86 634.91 2348.13C643.763 2345.85 648.794 2342.19 654.721 2333.72C670.306 2311.43 706.811 2304.33 723.937 2320.25C734.809 2330.35 753.698 2357.99 768.597 2385.59C775.847 2399.02 784.026 2411.96 786.773 2414.35C789.52 2416.73 798.164 2419.53 805.983 2420.56C843.462 2425.51 853.765 2429.25 862.269 2440.98C870.504 2452.35 879.343 2458.88 887.007 2459.26C889.353 2459.38 897.444 2465.16 904.988 2472.1L918.704 2484.72L916.721 2501.13C913.297 2529.47 900.049 2543.63 889.333 2530.39L884.197 2524.05L874.436 2532.16C859.963 2544.19 862.076 2550.16 880.843 2550.27C885.016 2550.29 890.246 2551.46 892.468 2552.87C895.923 2555.06 895.85 2556.43 891.963 2562.37C885.269 2572.58 839.65 2601.4 830.172 2601.4C828.475 2601.4 827.416 2597.11 827.779 2591.71C829.201 2570.6 814.48 2567.98 791.781 2585.31C784.868 2590.59 773.389 2596.54 766.271 2598.53C759.154 2600.52 747.906 2606.92 741.276 2612.75C728.299 2624.15 724.718 2624.97 670.947 2628.87C652.241 2630.22 644.86 2632.05 638.252 2636.96C624.93 2646.86 616.238 2647.78 605.345 2640.43ZM554.948 2600.83C548.669 2594.55 551.251 2584.06 561.629 2573.68C568.829 2566.48 572.598 2564.47 574.779 2566.65C579.027 2570.89 575.399 2587.84 568.313 2596.85C561.782 2605.15 559.845 2605.73 554.948 2600.83ZM958.081 2539.04C958.081 2533.85 964.175 2520.46 967.499 2518.35C977.963 2511.69 981.688 2522.03 973.391 2534.69C968.976 2541.43 958.081 2544.52 958.081 2539.04ZM319.517 2476.37C309.546 2472.34 302.226 2460.29 300.126 2444.46C298.362 2431.17 298.838 2428.91 304.326 2424.46C308.157 2421.36 315.316 2419.45 323.122 2419.45C331.116 2419.45 340.618 2416.85 349.082 2412.34C359.339 2406.88 366.671 2405.24 380.712 2405.24C393.959 2405.24 400.467 2403.9 404.355 2400.38C411.134 2394.25 419.338 2398.53 419.338 2408.2C419.338 2413.72 417.083 2415.39 405.741 2418.28C390.14 2422.26 383.801 2426.64 383.801 2433.45C383.801 2440.18 378.126 2445.04 370.253 2445.04C366.553 2445.04 361.065 2446.35 358.057 2447.96C351.58 2451.43 344 2465.11 344 2473.33C344 2478.04 342.238 2479.12 334.76 2478.97C329.678 2478.88 322.819 2477.7 319.517 2476.37ZM942.923 2470.16C940.571 2461.17 944.907 2455.16 960.149 2446.28C967.612 2441.93 982.355 2430.07 992.912 2419.91C1012.2 2401.37 1017.09 2399.4 1013.9 2411.5C1009.57 2427.91 994.487 2447.98 976.007 2461.89C955.157 2477.59 945.496 2480 942.923 2470.16ZM645.466 2461.56C638.197 2453.76 638.233 2452.69 646.065 2443.69L652.462 2436.34L667.23 2447.08C683.502 2458.92 685.56 2463.41 675.916 2465.99C662.799 2469.5 651.311 2467.83 645.466 2461.56ZM444.214 2374.92C436.234 2371.7 442.103 2362.15 470.515 2332.11C499.831 2301.12 514.087 2290.9 533.427 2287.04C545.195 2284.68 547.509 2291.21 540.511 2307.03C535.222 2318.99 531.996 2322.46 499.73 2350.9C475.327 2372.41 457.307 2380.21 444.214 2374.92ZM5.68603 2177.71C5.68603 2171.21 13.156 2167.07 17.3424 2171.26C21.4247 2175.34 17.2458 2183.48 11.0681 2183.48C7.55396 2183.48 5.68603 2181.48 5.68603 2177.71ZM645.468 2165.14C640.502 2159.16 643.012 2150.93 650.115 2149.91C657.519 2148.85 661.802 2158.89 656.614 2165.14C652.296 2170.34 649.785 2170.34 645.468 2165.14ZM0 2156.92C0 2148.79 9.53491 2139.53 15.5308 2141.83C22.9329 2144.67 20.9353 2157.64 12.6086 2160.81C1.89137 2164.89 0 2164.3 0 2156.92ZM675.471 2128.76C671.534 2125.24 667.543 2119.07 666.603 2115.05C665.127 2108.73 667.394 2105.54 683.28 2091.59C693.393 2082.72 702.997 2075.45 704.622 2075.45C709.765 2075.45 716.429 2087.74 716.429 2097.22C716.429 2109.85 712.144 2119.91 703.249 2128.16C693.856 2136.86 684.761 2137.06 675.471 2128.76ZM24.1528 2123.76C21.8948 2120.11 29.8806 2116.95 35.7177 2119.19C41.4143 2121.38 38.2768 2126.62 31.2727 2126.62C28.3301 2126.62 25.126 2125.34 24.1528 2123.76ZM68.0981 2100.08C59.4305 2095.76 57.6274 2088.03 64.8473 2086.14C72.2326 2084.21 79.6034 2088.8 79.6034 2095.33C79.6034 2102.75 76.236 2104.14 68.0981 2100.08ZM598.472 2055.59C592.787 2046.24 582.573 2034.02 575.775 2028.45C560.361 2015.82 558.88 2012 564.67 1999.8C577.754 1972.22 621.207 1965.58 643.386 1987.76C651.865 1996.23 651.874 1996.28 646.258 2001.89C640.935 2007.22 640.849 2008.41 644.702 2023.54C651.68 2050.94 639.962 2072.61 618.169 2072.61C609.777 2072.61 607.738 2070.85 598.472 2055.59ZM83.868 2050.77C53.6821 2043.99 50.749 2039.04 62.4189 2014.59C69.6981 1999.34 72.8338 1995.76 82.202 1992.01C94.2722 1987.18 96.6018 1984.65 100.926 1971.68C104.463 1961.07 108.9 1961.58 111.207 1972.86C112.173 1977.58 116.97 1986.01 121.869 1991.59C136.16 2007.86 134.453 2013.53 105.38 2046.31C99.8645 2052.53 95.6208 2053.41 83.868 2050.77ZM760.878 1989.96C756.759 1986.72 753.388 1981.68 753.388 1978.76C753.388 1969.92 767.804 1928.13 773.222 1921.26C776.011 1917.72 789.001 1909.2 802.088 1902.32C826.681 1889.39 835.834 1883.02 835.834 1878.81C835.834 1877.46 823.426 1876.7 808.26 1877.12C781.695 1877.84 780.561 1877.62 777.238 1871.07C772.975 1862.67 756.703 1845.17 753.157 1845.17C751.72 1845.17 750.535 1851.89 750.524 1860.1C750.507 1873.55 749.208 1876.65 737.35 1891.56C729.665 1901.22 723.146 1907.04 721.667 1905.56C720.276 1904.17 717.952 1895.75 716.504 1886.85C715.056 1877.96 713.092 1869.41 712.139 1867.87C709.17 1863.07 700.148 1864.79 691.771 1871.76C685.405 1877.05 679.009 1878.82 660.991 1880.25C633.982 1882.39 628.501 1880.23 633.434 1869.41C638.513 1858.26 637.711 1856.54 627.419 1856.54C614.199 1856.54 608.272 1851.12 606.424 1837.34C605.32 1829.11 602.768 1824.1 598.135 1821.06C588.269 1814.6 563.316 1777.74 561.211 1766.52C558.823 1753.79 565.773 1745.67 579.049 1745.67C586.315 1745.67 591.69 1748.49 601.352 1757.4C614.066 1769.12 614.082 1769.12 614.082 1761.6C614.082 1750.85 593.623 1729.44 579.798 1725.72C571.366 1723.45 567.49 1720.15 562.377 1710.89C555.108 1697.72 539.918 1685.96 530.178 1685.96C526.711 1685.96 520.379 1688.71 516.108 1692.07C508.867 1697.77 508.468 1699.19 510.209 1713.12C511.316 1721.99 510.936 1728.77 509.273 1729.79C505.843 1731.91 484.293 1724.86 463.894 1714.94C447.664 1707.04 440.66 1697.58 440.66 1683.56C440.66 1677.56 437.862 1672.72 430.808 1666.53C425.389 1661.77 420.131 1654.6 419.124 1650.58C417.522 1644.2 418.579 1642.75 427.555 1639C437.68 1634.77 437.817 1634.49 437.817 1618.14C437.817 1600.94 442.831 1592.15 452.636 1592.15C457.126 1592.15 473.235 1608.4 481.991 1621.76C484.637 1625.8 488.739 1629.1 491.106 1629.1C494.624 1629.1 495.067 1626.52 493.532 1614.95C491.834 1602.15 492.344 1600.19 498.851 1594.54C502.81 1591.09 506.049 1586.68 506.049 1584.72C506.049 1582.76 500.292 1576.44 493.256 1570.67C479.469 1559.37 477.918 1554.4 485.021 1544.26C489.437 1537.95 489.368 1528.14 484.834 1517.54C480.448 1507.29 499.199 1507.51 511.976 1517.85C516.933 1521.87 519.01 1527.1 520.153 1538.45L521.686 1553.66L541.587 1564.51C552.533 1570.48 566.692 1580.45 573.053 1586.68C584.584 1597.97 584.635 1597.98 589.841 1592.23C592.713 1589.06 596.845 1586.46 599.023 1586.46C603.924 1586.46 616.702 1599.87 620.013 1608.49C623.093 1616.51 628.298 1616.84 628.298 1609.02C628.298 1601.46 623.852 1593.11 613.475 1581.17C600.729 1566.5 598.491 1558.32 604.264 1547.53C609.685 1537.39 609.185 1533.68 598.678 1506.02C589.451 1481.73 589.244 1473.88 597.772 1471.74C601.31 1470.86 609.741 1464.32 616.507 1457.22C623.274 1450.12 631.155 1444.31 634.02 1444.31C640.034 1444.31 657.596 1464.33 680.167 1496.91C702.277 1528.82 705.162 1537.11 707.879 1576.51C709.174 1595.27 711.626 1614.23 713.331 1618.63C718.322 1631.52 716.982 1642.53 707.901 1663.22C703.21 1673.91 699.372 1683.24 699.372 1683.95C699.372 1684.67 703.176 1686.01 707.825 1686.94C719.162 1689.21 721.963 1699.79 714.137 1710.78L708.445 1718.77L715.023 1734.33C718.64 1742.89 720.989 1750.87 720.243 1752.08C719.497 1753.29 713.856 1756.84 707.708 1759.98C696.561 1765.67 692.981 1771.25 700.483 1771.25C702.658 1771.25 710.014 1768.72 716.83 1765.63C732.725 1758.42 739.844 1758.45 746.478 1765.78C751.58 1771.42 751.6 1772.07 746.918 1780.23C739.723 1792.77 740.432 1799.2 748.833 1797.59C758.887 1795.67 799.662 1806.77 814.506 1815.47C829.197 1824.08 832.393 1823.76 861.897 1810.83C883 1801.58 892.155 1800.63 903.502 1806.5C931.676 1821.07 926.735 1848.11 891.86 1870.22C868.567 1884.98 864.845 1889.59 861.447 1907.91C859.742 1917.1 856.619 1924.5 853.732 1926.19C843.05 1932.46 818.489 1957.46 811.788 1968.89C796.881 1994.33 776.931 2002.58 760.878 1989.96ZM537.853 1985.19C538.375 1982.45 541.667 1979.8 545.169 1979.3C552.168 1978.3 553.419 1981.46 548.125 1986.75C543.032 1991.84 536.766 1990.89 537.853 1985.19ZM500.375 1980.23C495.563 1974.43 502.56 1963.87 514.486 1958.93C521.604 1955.98 524.887 1955.95 531.053 1958.78L538.743 1962.31L526.295 1973.4C513.009 1985.23 506.045 1987.06 500.375 1980.23ZM180.024 1956.73C165.551 1954.33 164.97 1936.37 179.22 1931.85C187.18 1929.32 191.427 1933.78 191.427 1944.67C191.427 1954.99 188.455 1958.13 180.024 1956.73ZM160.276 1925.55C139.679 1923.67 129.976 1905.29 124.598 1857.96C122.798 1842.13 119.054 1826.68 114.771 1817.44C107.589 1801.93 108.151 1796.47 117.753 1788.5C120.142 1786.52 122.944 1780.23 123.979 1774.52C125.013 1768.81 128.089 1759.67 130.814 1754.2C139.639 1736.47 140.23 1727.15 133.757 1707.7C129.077 1693.63 128.395 1687.97 130.665 1682C134.183 1672.74 147.492 1666.58 160.003 1668.42C172.931 1670.31 199.623 1698.06 206.01 1716.25C208.672 1723.83 213.303 1735.5 216.301 1742.19C223.905 1759.15 223.205 1764.35 211.727 1776.17C206.213 1781.85 200.989 1789.78 200.118 1793.8C197.198 1807.26 196.38 1808.21 187.726 1808.21C177.674 1808.21 176.424 1813.43 184.686 1820.91C192.702 1828.16 197.105 1843.84 194.936 1857.4C192.568 1872.21 188.974 1876.44 178.759 1876.44C166.118 1876.44 169.02 1880.84 186.293 1887.85C208.93 1897.03 219.948 1914.07 209.812 1924.21C206.539 1927.48 187.136 1928.01 160.276 1925.55ZM656.727 1902.26C656.727 1895.79 674.825 1883.67 680.964 1886.03C687.388 1888.49 685.968 1895.29 677.666 1901.82C667.95 1909.47 656.727 1909.7 656.727 1902.26ZM770.556 1782.15C763.19 1770.07 763.234 1763.74 770.717 1759.74C786.749 1751.16 817.097 1774.11 803.858 1784.8C801.903 1786.38 794.912 1788.56 788.321 1789.64C776.935 1791.52 776.043 1791.15 770.556 1782.15ZM743.717 1744.12C734.555 1734.96 732.699 1720.23 737.51 1694.87C739.988 1681.81 742.016 1667.03 742.016 1662.03C742.016 1646.45 755.396 1636.5 765.965 1644.23C770.944 1647.87 770.949 1648.64 766.11 1664.86C759.561 1686.77 759.94 1690.23 770.499 1704.93C780.396 1718.71 780.105 1723.85 768.557 1739.27C760.928 1749.45 750.99 1751.39 743.717 1744.12ZM219.896 1681.59C217.997 1676.64 226.341 1666.06 232.143 1666.06C236.887 1666.06 237.184 1677.92 232.556 1682.55C227.838 1687.27 221.902 1686.82 219.896 1681.59ZM179.976 1660.62C157.401 1650.19 146.88 1641.17 141.595 1627.71L136.548 1614.86L148.588 1606.13C161.65 1596.65 163.665 1596.58 194.186 1604.49C203.261 1606.84 212.537 1610.3 214.798 1612.17C219.521 1616.09 220.257 1625.09 216.067 1627.68C211.902 1630.26 212.598 1637.41 217.488 1642.3C232.388 1657.2 203.308 1671.4 179.976 1660.62ZM764.364 1629.34L757.652 1623.89L763.639 1615.84C771.909 1604.71 777.824 1604.16 779.858 1614.33C781.941 1624.75 779.405 1634.79 774.693 1634.79C772.703 1634.79 768.055 1632.34 764.364 1629.34ZM209.881 1584.68C201.006 1582.66 187.725 1578.17 180.368 1574.71C169.169 1569.45 165.928 1566.02 160.461 1553.66C152.956 1536.69 150.482 1535.29 128.064 1535.29C112.206 1535.29 111.168 1534.82 99.8661 1522.56C93.2451 1515.37 88.1439 1507.01 88.159 1503.37C88.1737 1499.81 91.9367 1490.37 96.5209 1482.37C113.67 1452.48 135.121 1443.72 150.156 1460.47C153.779 1464.51 157.709 1466.68 158.89 1465.3C160.072 1463.92 165.211 1457.35 170.311 1450.71C175.412 1444.06 180.655 1438.63 181.963 1438.63C183.272 1438.63 185.181 1442.45 186.208 1447.12C189.224 1460.86 193.453 1460.37 207.298 1444.67C217.196 1433.45 222.818 1429.5 230.672 1428.25C243.415 1426.23 253.025 1434.27 253.025 1446.95C253.025 1458.08 263.387 1465.97 278.806 1466.58C298.713 1467.36 303.91 1476.48 292.62 1490.84C284.646 1500.97 279.468 1500.31 260.518 1486.74C251.621 1480.37 243.159 1475.58 241.711 1476.08C240.264 1476.59 245.445 1487.88 253.225 1501.17C273.605 1535.99 273.296 1536.53 232.413 1537.51C214.04 1537.95 199.008 1539.5 199.008 1540.96C199.008 1546.22 210.349 1549.5 228.487 1549.5C253.374 1549.5 261.566 1552.83 261.51 1562.94C261.462 1572.61 259.314 1576.01 250.249 1580.79C237.822 1587.35 226.406 1588.45 209.881 1584.68ZM780.7 1579.12C777.58 1570.99 778.907 1562.44 784.784 1552.8C789.546 1544.99 791.308 1543.92 794.724 1546.75C797.007 1548.65 798.875 1554.87 798.875 1560.59C798.875 1577.39 785.335 1591.2 780.7 1579.12ZM188.624 1417.2C187.702 1414.79 189.228 1410.31 192.017 1407.22C196.762 1401.98 197.424 1401.92 202.313 1406.35C210.758 1413.99 209.069 1421.57 198.919 1421.57C193.788 1421.57 189.622 1419.8 188.624 1417.2ZM235.967 1408.89C235.967 1392.88 259.23 1383.92 261.004 1399.25C261.704 1405.29 260.079 1407.67 252.749 1411.33C240.051 1417.66 235.967 1417.07 235.967 1408.89ZM317.69 1386.74C304.788 1370.56 272.926 1315.78 272.926 1309.79C272.926 1303.28 279.128 1303.78 288.331 1311.02C295.3 1316.5 297.078 1316.72 308.461 1313.54C316.483 1311.29 324.6 1306.09 331.166 1298.99C338.625 1290.93 343.669 1287.95 349.834 1287.95C358.092 1287.95 358.241 1287.69 356.47 1276.62C353.803 1259.94 360.455 1250.99 375.525 1250.99C381.846 1250.99 389.461 1252.3 392.447 1253.9C396.99 1256.33 398.162 1255.66 399.624 1249.84C402.565 1238.12 395.288 1227.38 382.633 1224.76C376.519 1223.49 367.316 1219.86 362.184 1216.69C357.051 1213.52 344.784 1209.66 334.922 1208.12C313.098 1204.7 303.087 1198.09 301.906 1186.31C301.166 1178.92 303.052 1175.98 314.48 1166.69C321.875 1160.67 332.501 1151.63 338.095 1146.59L348.264 1137.42L338.88 1137.35C332.024 1137.29 327.044 1134.72 320.4 1127.81C315.398 1122.6 307.93 1116.27 303.805 1113.74C298.317 1110.36 295.358 1105.08 292.775 1094.06C290.834 1085.77 287.214 1075.47 284.731 1071.16C280.864 1064.46 280.752 1062.01 283.948 1054.1C286 1049.03 288.957 1039.12 290.519 1032.08C294.117 1015.87 298.605 1012.35 313.198 1014.31L324.748 1015.86L322.77 1001.47C319.154 975.185 328.774 969.764 359.637 980.697C373.797 985.713 373.852 985.781 373.852 998.323C373.852 1008.23 375.748 1013.22 382.751 1021.73C389.584 1030.04 392.089 1036.44 393.545 1049.3C395.48 1066.41 402.07 1077.49 407.235 1072.33C409.02 1070.54 407.829 1063.78 403.863 1053.18C396.504 1033.51 398.924 1024.18 413.404 1016.38C424.942 1010.17 438.594 1012.21 452.111 1022.19C460.627 1028.47 462.025 1028.76 464.291 1024.71C467.827 1018.39 459.312 1000.26 443.896 981.265C432.025 966.642 431.572 965.394 433.333 952.122C434.345 944.495 433.91 935.896 432.366 933.013C428.218 925.263 435.161 917.138 459.522 901.235C480.362 887.63 490.359 883.195 520.264 874.289C538.113 868.972 542.963 865.433 558.39 846.463C564.482 838.974 588.879 818.274 612.607 800.464C636.335 782.654 659.166 763.601 663.343 758.124C676.908 740.34 688.262 741.781 700.613 762.857C704.522 769.526 709.601 783.925 711.9 794.854C714.199 805.783 717.373 818.126 718.953 822.283C721.318 828.501 720.08 834.172 711.968 854.289C704.1 873.802 702.726 879.889 705.162 884.442C706.841 887.579 707.401 892.713 706.405 895.849C705.409 898.986 689.347 919.473 670.711 941.377C652.074 963.28 636.826 982.242 636.826 983.514C636.826 984.785 639.477 989.197 642.718 993.317C653.328 1006.8 671.909 1002.09 691.138 981.041C696.673 974.982 701.507 972.287 705.757 972.893C718.055 974.648 715.437 998.268 701.282 1013.28C688.603 1026.72 675.301 1028.97 656.446 1020.86C640.277 1013.9 627.209 1014.96 622.587 1023.6C621.037 1026.49 619.768 1036.38 619.768 1045.56C619.768 1054.75 618.169 1064.42 616.214 1067.04C614.26 1069.67 605.624 1073.13 597.024 1074.74C588.424 1076.34 574.991 1080.85 567.173 1084.75C559.355 1088.65 546.118 1094.07 537.758 1096.79C523.771 1101.34 517.064 1108.34 528.248 1106.72C563.888 1101.55 591.091 1097.17 596.023 1095.81C599.381 1094.88 604.818 1095.55 608.105 1097.31C612.897 1099.88 614.071 1103.17 614.026 1113.92C613.945 1132.19 608.813 1166.42 605.676 1169.56C604.269 1170.97 590.658 1171.88 575.432 1171.6C544.494 1171.02 543.13 1173.24 566.885 1185.45C580.825 1192.62 583.516 1198.38 580.92 1215.45C578.599 1230.71 575.491 1233.93 563.092 1233.93C555.145 1233.93 550.618 1236 544.429 1242.46C539.935 1247.15 534.045 1250.99 531.34 1250.99C528.635 1250.99 522.01 1245.68 516.619 1239.19C507.055 1227.67 506.652 1227.5 500.113 1232.08C496.427 1234.66 492.352 1236.77 491.057 1236.77C483.398 1236.77 470.396 1178.66 475.211 1165.95C478.762 1156.58 488.225 1146.4 498.231 1141.19C508.904 1135.64 508.048 1131.58 496.203 1131.58C488.069 1131.58 483.124 1134.61 467.773 1148.97C456.717 1159.31 449.19 1168.69 449.19 1172.12C449.19 1186.18 461.572 1218.7 470.836 1228.96C481.869 1241.19 482.768 1248.59 474.808 1261.65C468.772 1271.55 461.502 1273.27 447.767 1268.05C440.25 1265.19 429.289 1268.37 429.289 1273.41C429.289 1274.69 433.127 1279.75 437.818 1284.66C450.135 1297.55 449.004 1305.49 432.366 1322.93C418.645 1337.31 418.278 1337.49 412.63 1332.37C404.423 1324.95 401.4 1327.12 393.742 1345.96C386.324 1364.21 377.93 1374.3 357.834 1389.11C339.309 1402.77 330.029 1402.22 317.69 1386.74ZM216.533 1366.69C211.938 1361.16 215.856 1350.65 223.207 1348.81C226.809 1347.91 233.831 1349.34 239.073 1352.05L248.478 1356.91L240.643 1363.65C232.011 1371.08 221.294 1372.43 216.533 1366.69ZM942.633 1330C936.588 1321.37 941.746 1316.42 949.485 1323.42C952.65 1326.29 955.238 1330.35 955.238 1332.45C955.238 1338.45 947.492 1336.94 942.633 1330ZM473.558 1297.7C468.12 1292.26 467.839 1285.06 472.8 1278.27C476.21 1273.61 477.141 1274.15 484.279 1284.94C488.551 1291.39 491.283 1297.91 490.351 1299.42C487.751 1303.63 478.544 1302.68 473.558 1297.7ZM1015.24 1288.13C1010.18 1285.01 1012.45 1275.44 1018.53 1274.27C1022.16 1273.57 1023.47 1275.21 1023.47 1280.46C1023.47 1288.69 1020.54 1291.41 1015.24 1288.13ZM611.733 1276.56C604.467 1270.51 605.642 1265.2 614.25 1265.2C618.486 1265.2 619.768 1267.19 619.768 1273.73C619.768 1283.73 620.164 1283.59 611.733 1276.56ZM299.369 1269.02C295.414 1258.72 313.222 1239.96 328.051 1238.82C338.487 1238.01 342.505 1244.33 340.01 1257.63C338.112 1267.75 337.696 1268.05 325.559 1268.05C318.686 1268.05 312.272 1269.33 311.306 1270.89C308.552 1275.35 301.364 1274.22 299.369 1269.02ZM998.385 1226.67C999.671 1220.5 1004.72 1220.12 1005.87 1226.11C1006.47 1229.23 1005.08 1231.09 1002.15 1231.09C999.416 1231.09 997.849 1229.25 998.385 1226.67ZM1044.68 1182.06C1042.8 1177.17 1047.91 1162.86 1051.53 1162.86C1055.38 1162.86 1056.87 1169.03 1054.9 1176.86C1052.89 1184.86 1046.92 1187.9 1044.68 1182.06ZM270.971 1158.63C260.17 1147.83 259.822 1142.06 269.883 1140.59C287.903 1137.95 299.606 1149.32 291.541 1161.63C285.534 1170.79 282.727 1170.38 270.971 1158.63ZM404.71 992.99C403.642 988.69 400.246 981.746 397.165 977.559C390.889 969.028 392.339 961.006 400.156 961.006C402.995 961.006 412.202 967.977 420.616 976.497C433.649 989.694 435.371 992.64 432.253 996.397C430.103 998.988 424.067 1000.81 417.623 1000.81C408.023 1000.81 406.411 999.832 404.71 992.99ZM2045.41 619.678C2042.81 615.462 2049.68 599.949 2054.16 599.949C2066.89 599.949 2070.9 609.608 2061.64 617.988C2055.72 623.343 2048.16 624.13 2045.41 619.678ZM2083.9 556.142C2083.9 548.391 2090.87 541.11 2093.78 545.82C2096.41 550.084 2092.98 559.328 2088.05 561.217C2085.14 562.337 2083.9 560.826 2083.9 556.142ZM2120.53 558.326C2118.4 555.761 2115.84 545.846 2114.85 536.293C2113.86 526.74 2111.31 511.44 2109.2 502.291L2105.35 485.659L2117.41 475.283C2124.05 469.577 2129.45 462.816 2129.43 460.26C2129.37 454.111 2142.5 445.698 2148.96 447.747C2151.77 448.637 2155.85 452.715 2158.04 456.807C2161.7 463.644 2161.51 464.593 2155.66 468.479C2148.09 473.505 2147.7 476.916 2153.9 483.767C2158.16 488.484 2158.03 489.652 2152.12 499.627C2147.54 507.332 2145.2 517.112 2143.87 534.008C2141.98 557.874 2139.43 562.849 2129.02 562.947C2126.48 562.969 2122.65 560.892 2120.53 558.326ZM1978.41 516.661C1969.89 508.493 1953.61 486.211 1945.68 471.867C1942.37 465.877 1935.02 456.593 1929.34 451.235C1917.84 440.397 1916.88 434.806 1923.59 418.03C1926.75 410.126 1930.28 406.143 1934.96 405.18C1938.7 404.412 1944.94 403.122 1948.84 402.313C1954.21 401.198 1959.55 403.77 1970.93 412.975C1979.19 419.647 1990.51 428.189 1996.09 431.957C2013.03 443.405 2019.19 455.162 2020.72 478.976C2022.03 499.346 2021.87 499.984 2015.31 500.911C2010.94 501.531 2006.56 505.614 2002.87 512.52C1996.18 525.059 1988.53 526.354 1978.41 516.661ZM2019.62 519.147C2016.21 510.256 2030.42 495.804 2039.24 499.19C2041.49 500.052 2044.73 503.842 2046.45 507.611C2048.92 513.031 2048.66 515.377 2045.21 518.827C2039.66 524.379 2021.72 524.603 2019.62 519.147ZM2048.13 490.908C2045.3 483.544 2048.17 470.678 2052.84 469.795C2058.64 468.696 2073 483.055 2071.9 488.862C2070.74 495.012 2050.37 496.764 2048.13 490.908ZM2170.72 428.04C2166.08 425.998 2160.87 424.875 2159.12 425.544C2151.55 428.451 2141.11 420.51 2132.53 405.301C2127.57 396.51 2121.58 388.577 2119.22 387.672C2116.86 386.768 2107.84 388.743 2099.16 392.063C2090.49 395.382 2081.14 398.098 2078.39 398.098C2075.64 398.098 2064.95 402.576 2054.63 408.048C2044.32 413.521 2033.43 417.999 2030.42 417.999C2021.01 417.999 2010.33 407.205 2008.49 395.843C2007.56 390.047 2005.47 379.24 2003.85 371.829C2001.55 361.337 2001.82 355.662 2005.04 346.2C2009.92 331.876 2007.28 321.338 1998.8 321.338C1991.17 321.338 1988.3 327.848 1986.44 349.323C1985.29 362.699 1983.23 369.125 1978.46 374.199C1970.02 383.181 1966.51 382.835 1957.5 372.132C1943.77 355.815 1938.26 341.783 1939.91 327.36C1940.74 320.138 1942.59 301.38 1944.02 285.673C1947.75 244.711 1953.49 234.711 1981.55 220.348C1997.01 212.434 2020.87 213.74 2037.6 223.416C2045.08 227.742 2055.9 233.719 2061.65 236.697C2070.22 241.142 2072.43 244.133 2073.99 253.372C2075.56 262.674 2077.74 265.57 2086.48 270.033C2109.58 281.817 2108.82 288.119 2082.34 304.137C2059.23 318.115 2054.71 332.445 2070.32 342.288C2073.78 344.469 2077.2 343.064 2084.9 336.306C2095.31 327.166 2103.21 326.571 2109.74 334.438C2114.01 339.58 2119.27 339.464 2123.7 334.131C2130.75 325.641 2139.43 329.089 2148.74 344.082C2158.41 359.627 2163.15 361.222 2174.1 352.611C2182.66 345.873 2197.09 345.081 2199.44 351.218C2200.35 353.58 2197.75 359.891 2193.67 365.243C2186.15 375.094 2183.72 390.518 2189.16 393.875C2190.76 394.867 2194.62 389.899 2197.76 382.797C2205.15 366.106 2210.36 361.139 2220.5 361.139C2232.43 361.139 2238.58 371.639 2236.65 388.741C2234.94 403.95 2229.39 409.47 2215.81 409.47C2209.07 409.47 2204.7 411.785 2199.29 418.217C2195.24 423.028 2191.93 428.145 2191.93 429.589C2191.93 433.27 2180.73 432.452 2170.72 428.04ZM2153.55 311.412C2151.99 310.89 2147.19 309.687 2142.89 308.739C2136.59 307.349 2135.07 305.44 2135.07 298.888C2135.07 288.74 2139.11 285.402 2153.55 283.6C2159.81 282.82 2167.8 281.248 2171.32 280.106C2177.43 278.123 2177.72 278.73 2177.72 293.694C2177.72 305.355 2176.57 309.799 2173.22 311.083C2168.54 312.88 2158.46 313.048 2153.55 311.412ZM2269.17 256.116C2262.81 248.2 2260.16 241.912 2260.16 234.694C2260.16 229.074 2258.13 221.38 2255.65 217.594C2251.17 210.751 2252.14 204.776 2257.74 204.776C2259.36 204.776 2266.84 211.173 2274.38 218.991C2281.91 226.809 2289.79 233.21 2291.89 233.216C2295.46 233.226 2305.65 253.547 2305.65 260.65C2305.65 264.855 2298.91 267.321 2287.41 267.321C2280.07 267.321 2276.32 265.017 2269.17 256.116ZM2099.5 241.671C2097.16 237.899 2105.92 227.52 2111.44 227.52C2116.25 227.52 2119.7 235.567 2116.26 238.763C2111.61 243.086 2101.46 244.846 2099.5 241.671ZM2070.53 228.845C2067.72 224.883 2061.26 216.004 2056.18 209.115C2046.62 196.149 2044.24 183.026 2050.35 176.915C2056.17 171.096 2072.18 172.953 2082.22 180.611C2087.35 184.52 2093.98 187.738 2096.96 187.762C2107.66 187.847 2110.24 191.885 2108.04 205.135C2104.49 226.543 2097.07 235.796 2083.32 235.958C2078.27 236.018 2073.89 233.581 2070.53 228.845ZM2125.04 213.18C2122.78 209.51 2129.09 201.414 2132.55 203.554C2133.94 204.41 2135.07 207.595 2135.07 210.63C2135.07 216.456 2128.16 218.216 2125.04 213.18ZM2183.07 199.041L2170.61 187.35L2178.7 180.333C2187.44 172.741 2187.17 164.974 2178.15 164.974C2175.17 164.974 2171.24 163.186 2169.43 161C2166.81 157.848 2167.77 155.743 2174.06 150.817C2178.41 147.401 2183.9 140.571 2186.25 135.638C2192.73 122.053 2198.66 122.816 2207.34 138.351C2214.63 151.392 2214.77 152.503 2211.72 173.323C2205.67 214.625 2202.62 217.368 2183.07 199.041ZM2228.89 169.126C2228.89 161.934 2239.36 143.619 2251.47 129.629C2257.71 122.413 2264.22 111.32 2265.93 104.976C2269.94 90.0589 2285.8 72.3196 2292.74 74.9816C2296.93 76.5909 2297.44 79.007 2295.84 89.6684C2294.79 96.6868 2295.07 102.429 2296.46 102.429C2301.68 102.429 2324.42 85.2598 2332.07 75.5507C2345.56 58.4265 2361.27 64.4528 2359.13 85.9266C2358.22 95.0166 2355.79 97.1172 2341.2 101.45C2334.91 103.318 2331.01 107.495 2326.3 117.419C2320.32 130.015 2319.23 130.859 2308.96 130.859C2301.61 130.859 2296.31 132.732 2292.86 136.545C2289.07 140.73 2284.1 142.231 2274.03 142.231C2260.73 142.231 2260.01 142.679 2248.79 157.867C2237.55 173.088 2228.89 177.985 2228.89 169.126ZM2139.91 120.805C2130.85 112.262 2121.46 105.272 2119.04 105.272C2116.62 105.272 2111.39 107.831 2107.42 110.958C2093.37 122.005 2081.06 116.027 2081.06 98.1646C2081.06 88.734 2076.36 79.8612 2067.81 73.1362C2058.94 66.1584 2059.4 60.264 2068.97 58.2387C2073.27 57.329 2079.9 55.9422 2083.71 55.157C2087.51 54.3717 2094.39 50.5611 2098.99 46.6889C2112.43 35.3773 2115.09 39.2198 2111.78 65.2079C2111.07 70.7841 2113.6 73.6825 2125.41 80.8443C2148.71 94.966 2169.19 113.817 2169.19 121.15C2169.19 127.261 2162.51 136.666 2158.32 136.441C2157.26 136.385 2148.98 129.348 2139.91 120.805ZM2132.33 54.2854C2122.61 36.1279 2136.58 15.7757 2152.05 25.557C2155.64 27.8305 2155.69 29.7174 2152.41 39.0176C2148.46 50.1847 2141.61 59.7844 2137.57 59.7844C2136.31 59.7844 2133.95 57.3098 2132.33 54.2854ZM2332.93 36.1715C2328.28 32.7715 2328.21 31.6358 2332.05 22.6673C2338.53 7.56716 2347.15 0.0820312 2358.05 0.0820312C2378.76 0.0820312 2374.16 28.8295 2352.1 37.2149C2342.71 40.7861 2338.97 40.5825 2332.93 36.1715Z" fill="#FF9811"/>
</svg>
